<?xml version="1.0" standalone="no"?>
<!DOCTYPE svg PUBLIC "-//W3C//DTD SVG 20010904//EN"
 "http://www.w3.org/TR/2001/REC-SVG-20010904/DTD/svg10.dtd">
<svg version="1.0" xmlns="http://www.w3.org/2000/svg"
 width="1280.000000pt" height="1160.000000pt" viewBox="0 0 1280.000000 1160.000000"
 preserveAspectRatio="xMidYMid meet">
<metadata>
Created by potrace 1.15, written by Peter Selinger 2001-2017
</metadata>
<g transform="translate(0.000000,1160.000000) scale(0.100000,-0.100000)"
fill="#000000" stroke="none">
<path d="M6185 11594 c-22 -2 -89 -9 -150 -15 -552 -54 -1187 -248 -1750 -534
-953 -485 -1585 -1138 -1725 -1784 -35 -159 -35 -232 0 -506 29 -232 86 -701
160 -1300 17 -137 58 -468 91 -735 33 -267 58 -493 56 -502 -3 -9 -112 -173
-243 -364 -132 -191 -238 -351 -237 -355 3 -8 1265 -1752 1283 -1772 4 -5 188
-41 409 -81 222 -41 406 -78 411 -82 4 -5 34 -150 66 -321 l58 -313 554 -310
554 -310 678 0 678 0 554 310 554 310 59 318 c32 174 59 318 60 320 1 1 185
36 410 77 224 40 411 78 415 82 18 20 1280 1764 1283 1772 1 4 -105 164 -237
355 -131 191 -240 355 -242 364 -3 9 38 364 90 787 53 424 114 919 136 1100
22 182 57 458 76 615 28 223 34 303 29 370 -53 706 -743 1462 -1810 1985 -551
269 -1085 431 -1650 501 -114 14 -535 26 -620 18z m-1694 -4920 c159 -30 391
-96 579 -166 452 -168 718 -345 801 -533 19 -44 21 -61 16 -164 -6 -139 -30
-230 -92 -357 -159 -322 -536 -580 -1030 -704 -262 -67 -626 -99 -740 -66
-217 64 -360 317 -419 746 -23 158 -39 451 -33 575 11 227 68 386 177 495 152
152 467 226 741 174z m4254 -14 c317 -81 463 -280 482 -655 6 -124 -10 -417
-33 -575 -59 -429 -202 -682 -419 -746 -114 -33 -478 -1 -740 66 -494 124
-871 382 -1030 704 -62 127 -86 218 -92 357 -6 131 4 169 75 262 167 221 756
487 1342 607 76 15 324 4 415 -20z m-2030 -2267 c169 -302 319 -567 332 -589
l23 -41 -149 -112 -149 -111 -186 111 -186 112 -186 -112 -186 -111 -149 111
-149 112 23 41 c13 22 163 287 332 589 169 301 311 547 315 547 4 0 146 -246
315 -547z"/>
<path d="M827 6735 c-301 -41 -589 -181 -684 -331 -48 -76 -57 -115 -50 -223
10 -161 38 -231 161 -401 122 -169 158 -287 160 -515 1 -209 -30 -284 -199
-485 -102 -121 -153 -211 -179 -315 -20 -79 -36 -187 -36 -252 l0 -53 448 0
c562 0 859 -14 1167 -56 405 -54 845 -178 1434 -403 74 -28 136 -49 138 -48 2
2 -262 368 -585 813 l-589 809 -109 59 c-468 252 -651 530 -788 1198 -20 95
-38 183 -41 196 -5 20 -11 22 -78 21 -39 -1 -116 -7 -170 -14z"/>
<path d="M11726 6733 c-2 -10 -14 -67 -26 -128 -12 -60 -37 -171 -55 -245
-136 -545 -317 -794 -749 -1026 l-109 -59 -589 -809 c-323 -445 -587 -811
-585 -813 2 -1 64 20 138 48 589 225 1029 349 1434 403 308 42 605 56 1168 56
l447 0 0 53 c0 65 -16 173 -36 252 -24 97 -80 197 -165 297 -193 226 -235 346
-210 604 15 152 48 254 115 352 29 42 73 107 98 144 25 37 55 92 67 122 41
109 53 269 26 345 -68 193 -366 358 -733 406 -158 21 -229 20 -236 -2z"/>
<path d="M4620 2650 c0 -34 144 -518 158 -532 9 -9 76 -60 147 -112 l130 -97
3 247 c1 136 -1 251 -5 255 -5 4 -89 53 -188 109 -99 56 -195 110 -212 121
-18 10 -33 14 -33 9z"/>
<path d="M7960 2535 l-215 -123 -3 -252 c-2 -201 0 -250 10 -244 7 4 75 54
150 111 125 94 138 107 148 145 7 24 38 139 71 257 33 117 59 216 57 220 -2 4
-100 -47 -218 -114z"/>
<path d="M4133 2585 c-45 -31 -334 -173 -474 -233 -497 -211 -992 -342 -1467
-387 -86 -8 -201 -15 -256 -15 -198 -1 -323 -47 -442 -165 -53 -53 -82 -92
-113 -156 -40 -81 -71 -200 -71 -272 0 -32 1 -32 88 -55 348 -93 605 -261 765
-504 71 -107 106 -178 183 -371 110 -271 155 -341 259 -395 46 -24 60 -27 160
-26 87 0 124 5 175 23 145 50 267 161 475 431 169 221 254 319 380 445 241
242 541 444 875 589 l121 53 -208 156 -208 156 -93 333 c-51 183 -97 350 -103
371 -11 41 -15 43 -46 22z"/>
<path d="M8621 2563 c-6 -21 -52 -188 -103 -371 l-93 -333 -208 -156 -207
-155 137 -62 c339 -151 618 -340 858 -581 126 -126 211 -224 380 -445 208
-270 330 -381 475 -431 51 -18 88 -23 175 -23 100 -1 114 2 160 26 104 54 149
124 259 395 72 181 111 261 171 353 164 254 411 422 762 517 l103 28 0 33 c0
69 -32 190 -72 271 -31 64 -58 102 -112 156 -119 118 -244 164 -442 165 -607
1 -1483 245 -2113 589 -62 34 -114 61 -116 61 -2 0 -9 -17 -14 -37z"/>
<path d="M5212 2074 l3 -247 210 -113 c116 -62 216 -113 223 -114 10 0 12 53
10 248 l-3 247 -223 113 -222 113 2 -247z"/>
<path d="M7365 2206 l-220 -111 -3 -247 c-2 -170 1 -248 8 -248 11 0 419 216
433 229 4 4 6 116 5 248 l-3 241 -220 -112z"/>
<path d="M5802 1823 l3 -258 260 0 260 0 3 258 2 257 -265 0 -265 0 2 -257z"/>
<path d="M6472 1823 l3 -258 260 0 260 0 3 258 2 257 -265 0 -265 0 2 -257z"/>
</g>
</svg>
